<svg aria-hidden="true" style="position: absolute; width: 0; height: 0; overflow: hidden;" version="1.1"
    xmlns="http://www.w3.org/2000/svg" xmlns:xlink="http://www.w3.org/1999/xlink">
    <defs>
        <symbol id="icon-arrow-down" viewBox="0 0 28 32">
            <path
                d="M2.127 28.747c0.13 1.097 1.124 1.881 2.221 1.751l17.876-2.113c1.097-0.13 1.881-1.124 1.751-2.221s-1.124-1.881-2.221-1.751l-15.889 1.878-1.878-15.889c-0.13-1.097-1.124-1.881-2.221-1.751s-1.881 1.124-1.751 2.221l2.113 17.876zM25.621 1.238l-1.57-1.238-21.508 27.274 3.141 2.477 21.508-27.274-1.571-1.238z">
            </path>
        </symbol>
        <symbol id="icon-arrow-up" viewBox="0 0 26 32">
            <path
                d="M23.648 1.613c-0.149-1.029-1.104-1.742-2.133-1.593l-16.766 2.428c-1.029 0.149-1.742 1.104-1.593 2.133s1.104 1.742 2.133 1.593l14.903-2.159 2.159 14.903c0.149 1.029 1.104 1.742 2.133 1.593s1.742-1.104 1.593-2.133l-2.428-16.766zM1.508 29.028l1.508 1.127 20.277-27.145-3.016-2.253-20.277 27.145 1.508 1.126z">
            </path>
        </symbol>
        <symbol id="icon-burger-menu" viewBox="0 0 32 32">
            <path stroke-width="2.1818" stroke-miterlimit="4" stroke-linecap="round" stroke-linejoin="round"
                d="M4 11.333h24M4 20.667h24"></path>
        </symbol>
        <symbol id="icon-calendar" viewBox="0 0 32 32">
            <path stroke-width="2.4" stroke-miterlimit="4" stroke-linecap="round" stroke-linejoin="round"
                d="M25.333 5.333h-18.667c-1.473 0-2.667 1.194-2.667 2.667v18.667c0 1.473 1.194 2.667 2.667 2.667h18.667c1.473 0 2.667-1.194 2.667-2.667v-18.667c0-1.473-1.194-2.667-2.667-2.667z">
            </path>
            <path stroke-width="2.4" stroke-miterlimit="4" stroke-linecap="round" stroke-linejoin="round"
                d="M21.333 2.667v5.333"></path>
            <path stroke-width="2.4" stroke-miterlimit="4" stroke-linecap="round" stroke-linejoin="round"
                d="M10.667 2.667v5.333"></path>
            <path stroke-width="2.4" stroke-miterlimit="4" stroke-linecap="round" stroke-linejoin="round"
                d="M4 13.333h24"></path>
        </symbol>
        <symbol id="icon-check" viewBox="0 0 32 32">
            <path stroke-width="3" stroke-miterlimit="4" stroke-linecap="round" stroke-linejoin="round"
                d="M26.667 8l-14.667 14.667-6.667-6.667"></path>
        </symbol>
        <symbol id="icon-chevron-down" viewBox="0 0 32 32">
            <path stroke-width="3.2" stroke-miterlimit="4" stroke-linecap="round" stroke-linejoin="round"
                d="M8 12l8 8 8-8"></path>
        </symbol>
        <symbol id="icon-chevron-up" viewBox="0 0 32 32">
            <path stroke-width="3.2" stroke-miterlimit="4" stroke-linecap="round" stroke-linejoin="round"
                d="M8 20l8-8 8 8"></path>
        </symbol>
        <symbol id="icon-clock" viewBox="0 0 32 32">
            <path stroke-width="2.4" stroke-miterlimit="4" stroke-linecap="round" stroke-linejoin="round"
                d="M16 29.333c7.364 0 13.333-5.969 13.333-13.333s-5.97-13.333-13.333-13.333c-7.364 0-13.333 5.97-13.333 13.333s5.97 13.333 13.333 13.333z">
            </path>
            <path stroke-width="2.4" stroke-miterlimit="4" stroke-linecap="round" stroke-linejoin="round"
                d="M16 8v8l5.333 2.667"></path>
        </symbol>
        <symbol id="icon-edit" viewBox="0 0 32 32">
            <path stroke-width="3" stroke-miterlimit="4" stroke-linecap="round" stroke-linejoin="round"
                d="M22.667 4c0.35-0.35 0.766-0.628 1.223-0.817s0.948-0.287 1.443-0.287c0.495 0 0.986 0.098 1.443 0.287s0.873 0.467 1.223 0.817c0.35 0.35 0.628 0.766 0.818 1.223s0.287 0.948 0.287 1.443c0 0.495-0.097 0.986-0.287 1.443s-0.467 0.873-0.818 1.223l-18 18-7.333 2 2-7.333 18-18z">
            </path>
        </symbol>
        <symbol id="icon-eye-off" viewBox="0 0 32 32">
            <path stroke-width="2.4" stroke-miterlimit="4" stroke-linecap="round" stroke-linejoin="round"
                d="M23.92 23.92c-2.279 1.737-5.055 2.7-7.92 2.747-9.333 0-14.667-10.667-14.667-10.667 1.659-3.091 3.959-5.791 6.747-7.92M13.2 5.653c0.918-0.215 1.857-0.322 2.8-0.32 9.333 0 14.667 10.667 14.667 10.667-0.809 1.514-1.775 2.94-2.88 4.253M18.827 18.827c-0.366 0.393-0.808 0.708-1.299 0.927s-1.020 0.336-1.557 0.346c-0.537 0.009-1.071-0.089-1.569-0.291s-0.95-0.501-1.33-0.88c-0.38-0.38-0.679-0.832-0.88-1.33s-0.3-1.032-0.29-1.569c0.009-0.537 0.127-1.067 0.346-1.558s0.534-0.932 0.927-1.298">
            </path>
            <path stroke-width="2.4" stroke-miterlimit="4" stroke-linecap="round" stroke-linejoin="round"
                d="M1.333 1.333l29.333 29.333"></path>
        </symbol>
        <symbol id="eye" viewBox="0 0 32 32">
            <path stroke-width="2.4" stroke-miterlimit="4" stroke-linecap="round" stroke-linejoin="round"
                d="M1.333 16c0 0 5.333-10.667 14.667-10.667s14.667 10.667 14.667 10.667-5.333 10.667-14.667 10.667c-9.333 0-14.667-10.667-14.667-10.667z">
            </path>
            <path stroke-width="2.4" stroke-miterlimit="4" stroke-linecap="round" stroke-linejoin="round"
                d="M16 20c2.209 0 4-1.791 4-4s-1.791-4-4-4c-2.209 0-4 1.791-4 4s1.791 4 4 4z"></path>
        </symbol>
        <symbol id="icon-log-out" viewBox="0 0 32 32">
            <path stroke-width="2.6" stroke-miterlimit="4" stroke-linecap="round" stroke-linejoin="round"
                d="M12 28h-5.333c-0.707 0-1.386-0.281-1.886-0.781s-0.781-1.178-0.781-1.886v-18.667c0-0.707 0.281-1.386 0.781-1.886s1.178-0.781 1.886-0.781h5.333">
            </path>
            <path stroke-width="2.6" stroke-miterlimit="4" stroke-linecap="round" stroke-linejoin="round"
                d="M21.333 22.667l6.667-6.667-6.667-6.667"></path>
            <path stroke-width="2.6" stroke-miterlimit="4" stroke-linecap="round" stroke-linejoin="round"
                d="M28 16h-16"></path>
        </symbol>
        <symbol id="icon-search" viewBox="0 0 32 32">
            <path stroke-width="2.4" stroke-miterlimit="4" stroke-linecap="round" stroke-linejoin="round"
                d="M14.667 25.333c5.891 0 10.667-4.776 10.667-10.667s-4.776-10.667-10.667-10.667c-5.891 0-10.667 4.776-10.667 10.667s4.776 10.667 10.667 10.667z">
            </path>
            <path stroke-width="2.4" stroke-miterlimit="4" stroke-linecap="round" stroke-linejoin="round"
                d="M28 28l-5.8-5.8"></path>
        </symbol>
        <symbol id="icon-trash" viewBox="0 0 32 32">
            <path stroke-width="3" stroke-miterlimit="4" stroke-linecap="round" stroke-linejoin="round" d="M4 8h24">
            </path>
            <path stroke-width="3" stroke-miterlimit="4" stroke-linecap="round" stroke-linejoin="round"
                d="M25.333 8v18.667c0 0.707-0.281 1.386-0.781 1.886s-1.178 0.781-1.886 0.781h-13.333c-0.707 0-1.386-0.281-1.886-0.781s-0.781-1.178-0.781-1.886v-18.667M10.667 8v-2.667c0-0.707 0.281-1.386 0.781-1.886s1.178-0.781 1.886-0.781h5.333c0.707 0 1.385 0.281 1.886 0.781s0.781 1.178 0.781 1.886v2.667">
            </path>
            <path stroke-width="3" stroke-miterlimit="4" stroke-linecap="round" stroke-linejoin="round"
                d="M13.333 14.667v8"></path>
            <path stroke-width="3" stroke-miterlimit="4" stroke-linecap="round" stroke-linejoin="round"
                d="M18.667 14.667v8"></path>
        </symbol>
        <symbol id="icon-user" viewBox="0 0 32 32">
            <path stroke-width="2.6" stroke-miterlimit="4" stroke-linecap="round" stroke-linejoin="round"
                d="M26.667 28v-2.667c0-1.415-0.562-2.771-1.562-3.771s-2.357-1.562-3.771-1.562h-10.667c-1.414 0-2.771 0.562-3.771 1.562s-1.562 2.357-1.562 3.771v2.667">
            </path>
            <path stroke-width="2.6" stroke-miterlimit="4" stroke-linecap="round" stroke-linejoin="round"
                d="M16 14.667c2.946 0 5.333-2.388 5.333-5.333s-2.388-5.333-5.333-5.333c-2.946 0-5.333 2.388-5.333 5.333s2.388 5.333 5.333 5.333z">
            </path>
        </symbol>
        <symbol id="icon-x" viewBox="0 0 32 32">
            <path stroke-width="2.6667" stroke-miterlimit="4" stroke-linecap="round" stroke-linejoin="round"
                d="M24 8l-16 16"></path>
            <path stroke-width="2.6667" stroke-miterlimit="4" stroke-linecap="round" stroke-linejoin="round"
                d="M8 8l16 16"></path>
        </symbol>
    </defs>
</svg>