<svg xmlns="http://www.w3.org/2000/svg" width="27" height="16" fill="none"><g clip-path="url(#a)"><path fill="#0ef387" d="M18.57 11.38c-.052-.14-4.695-9.378-4.765-9.518A3.08 3.08 0 0 0 12.55.404 3.014 3.014 0 0 0 8.412 1.51a3.05 3.05 0 0 0 .018 3.11c.052.122 4.485 8.974 4.573 9.114.052.14.122.264.191.404.245.598.681 1.107 1.257 1.458a3.01 3.01 0 0 0 4.136-1.089 3.04 3.04 0 0 0-.017-3.126"/><path fill="#fafafa" d="M13.212 5.128c.506-.544.82-1.282.82-2.09C14.032 1.37 12.688 0 11.012 0a2.99 2.99 0 0 0-2.477 1.3C8.43 1.405.908 10.749.82 10.872a3.07 3.07 0 0 0-.82 2.09A3.03 3.03 0 0 0 3.02 16a2.99 2.99 0 0 0 2.478-1.3c.104-.123 7.644-9.449 7.714-9.572M26.18 5.128c.506-.544.82-1.282.82-2.09A3.03 3.03 0 0 0 23.98 0a2.99 2.99 0 0 0-2.478 1.3c-.105.105-7.644 9.449-7.732 9.572a3.07 3.07 0 0 0-.82 2.09A3.03 3.03 0 0 0 15.97 16a2.99 2.99 0 0 0 2.478-1.3c.122-.123 7.644-9.449 7.731-9.572"/></g><defs><clipPath id="a"><path fill="#fff" d="M0 0h27v16H0z"/></clipPath></defs></svg>